<svg viewBox="0 0 1024 1024" xmlns="http://www.w3.org/2000/svg">
  <path d="M179.169 568.25H62V849.5l83.306-76.556C226.925 887.356 360.744 962 512 962c229.5 0 418.837-171.788 446.513-393.75H844.831C818.056 727.887 679.231 849.5 512 849.5c-118.462 0-222.75-61.088-282.938-153.506L368.056 568.25H179.169zM512 62C282.5 62 93.162 233.787 65.487 455.75h113.681C205.944 296.112 344.769 174.5 512 174.5c122.006 0 228.938 64.744 288.225 161.775L680.75 455.75H962V174.5l-80.55 80.55C800.169 138.331 665 62 512 62z" fill="currentColor"/>
</svg>
